. 
  
http://www.torrentday.com/        :     The Hottest Private Tracker On The Net!!!


               www . TorrentDay . Com 
(((((((((((((= Enjoy No RAR releases =))))))))))))))))))))


...................................NFO:....................................

.*******************************************************************************
                      Steel.Trap.2007.DVDRip.AC3.X264-BARC0DE
*******************************************************************************

-------------------------------------------------------------------------------
                              General Information
-------------------------------------------------------------------------------
Type.................: Movie
Name.................: Steel Trap 
Movie Information....: http://www.imdb.com/title/tt0973790/
Genre................: Horror | Thriller

-------------------------------------------------------------------------------
                                    PLOT
-------------------------------------------------------------------------------
A who-is-it setting in the claustrophobic corridors of an abandoned and locked-off 
office building that has several guests invited to a party by their mysterious, 
unknown host. Only it is they who are the victims of their crimes. Suspense and 
mistrust are not the only stalker in this cat and mouse game of wits and fear. 
Who is the stalker? Why is he killing? And what is it exactly that everyone here 
has in common?  

-------------------------------------------------------------------------------
                                    CAST
-------------------------------------------------------------------------------
Georgia Mackenzie	... 	Kathy
Mark Wilson	... 	Wade
Pascal Langdale	... 	Robert
Julia Ballard	... 	Nicole
Joanna Bobin	... 	Pamela
Annabelle Wallis	... 	Melanie
Adam Rayner	... 	Adam
Frank Maier	... 	Number One Fan

-------------------------------------------------------------------------------
                                    MEDiA iNFO
-------------------------------------------------------------------------------

General
Complete name                    : Steel.Trap.2007.DVDRip.AC3.X264-BARC0DE.mkv
Format                           : Matroska
File size                        : 1.10 GiB
Duration                         : 1h 28mn
Overall bit rate                 : 1 772 Kbps


Video
ID                               : 1
Format                           : AVC
Format/Info                      : Advanced Video Codec
Format profile                   : High@L3.0
Format settings, CABAC           : Yes
Format settings, ReFrames        : 3 frames
Muxing mode                      : Container profile=Unknown@3.0
Codec ID                         : V_MPEG4/ISO/AVC
Duration                         : 1h 28mn
Bit rate                         : 1 311 Kbps
Width                            : 720 pixels
Height                           : 400 pixels
Display aspect ratio             : 16:9
Frame rate                       : 25.000 fps
Color space                      : YUV
Chroma subsampling               : 4:2:0
Bit depth                        : 8 bits
Scan type                        : Progressive
Bits/(Pixel*Frame)               : 0.182
Stream size                      : 820 MiB (73%)
Writing library                  : x264 core 79


Audio
ID                               : 2
Format                           : AC-3
Format/Info                      : Audio Coding 3
Mode extension                   : CM (complete main)
Codec ID                         : A_AC3
Duration                         : 1h 28mn
Bit rate mode                    : Constant
Bit rate                         : 448 Kbps
Channel(s)                       : 6 channels
Channel positions                : Front: L C R, Side: L R, LFE
Sampling rate                    : 48.0 KHz
Stream size                      : 285 MiB (25%)
Language                         : English